<svg enable-background="new 0 0 128 128" height="128" viewBox="0 0 128 128" width="128" xmlns="http://www.w3.org/2000/svg"><g fill="#282d33"><path d="m31.893 10.033h63.922v4h-63.922z"/><path d="m125.473 39.496h-122.946v-29.463h18.724v4h-14.724v21.463h114.946v-21.463h-15.998v-4h19.998z"/><path d="m20.749 50.646h6.717v4h-6.717z"/><path d="m34.046 50.646h6.719v4h-6.719z"/><path d="m47.344 50.646h6.718v4h-6.718z"/><path d="m60.644 50.646h6.714v4h-6.714z"/><path d="m73.938 50.646h6.72v4h-6.72z"/><path d="m87.234 50.646h6.722v4h-6.722z"/><path d="m100.534 50.646h6.717v4h-6.717z"/><path d="m20.749 63.175h6.717v4h-6.717z"/><path d="m34.046 63.175h6.719v4h-6.719z"/><path d="m47.344 63.175h6.718v4h-6.718z"/><path d="m60.644 63.175h6.714v4h-6.714z"/><path d="m73.938 63.175h6.72v4h-6.72z"/><path d="m87.234 63.175h6.722v4h-6.722z"/><path d="m100.534 63.175h6.717v4h-6.717z"/><path d="m20.749 75.703h6.717v4h-6.717z"/><path d="m34.046 75.703h6.719v4h-6.719z"/><path d="m47.344 75.703h6.718v4h-6.718z"/><path d="m60.644 75.703h6.714v4h-6.714z"/><path d="m20.749 88.23h6.717v4h-6.717z"/><path d="m34.046 88.23h6.719v4h-6.719z"/><path d="m47.344 88.23h6.718v4h-6.718z"/><path d="m119.049 37.64h4v35.293h-4z"/><path d="m60.507 111.752h-55.556v-74.112h4v70.112h51.556z"/><path d="m108.414 26.209h-11.999v-4h7.999v-18.209h-7.999v-4h11.999z"/><path d="m33.582 26.209h-11.997v-4h7.997v-18.209h-7.997v-4h11.997z"/><path d="m49.649 22.137h28.7v4h-28.7z"/><path d="m94.734 128c-15.755 0-28.573-12.705-28.573-28.322s12.818-28.322 28.573-28.322 28.572 12.705 28.572 28.322-12.817 28.322-28.572 28.322zm0-52.645c-13.55 0-24.573 10.911-24.573 24.322s11.024 24.323 24.573 24.323 24.572-10.911 24.572-24.322-11.023-24.323-24.572-24.323z"/><path d="m88.782 109.652-8.422-8.342 2.815-2.842 5.607 5.553 17.301-17.135 2.814 2.842z"/></g></svg>